<?xml version="1.0" encoding="utf-8"?>
<!-- Generator: Adobe Illustrator 26.5.0, SVG Export Plug-In . SVG Version: 6.00 Build 0)  -->
<svg version="1.0" id="katman_1" xmlns="http://www.w3.org/2000/svg" xmlns:xlink="http://www.w3.org/1999/xlink" x="0px" y="0px"
	 viewBox="0 0 1190.55 841.89" style="enable-background:new 0 0 1190.55 841.89;" xml:space="preserve">
<style type="text/css">
	.st0{fill:#FFFFFF;}
	.st1{opacity:0.5;}
	.st2{fill:#89C482;}
	.st3{fill:#E6B8D7;}
	.st4{fill:#AAB3DC;}
	.st5{fill:#C2A6CF;}
	.st6{fill:#FFD850;}
	.st7{fill:#B8E2FA;}
	.st8{fill:#D179B0;}
</style>
<rect x="377.94" y="264.34" class="st0" width="119.76" height="311.87"/>
<rect x="101" y="264.34" class="st0" width="119.76" height="311.87"/>
<rect x="931.82" y="391.58" class="st0" width="119.76" height="184.63"/>
<rect x="894.39" y="264.34" class="st0" width="194.61" height="119.76"/>
<rect x="505.18" y="456.45" class="st0" width="34.93" height="119.76"/>
<circle class="st0" cx="711.02" cy="420.27" r="155.93"/>
<path class="st0" d="M711.02,264.34c-36.08,0-71.04,12.51-98.92,35.4c-27.89,22.89-46.98,54.73-54.02,90.12
	c-7.04,35.38-1.59,72.11,15.42,103.93c17.01,31.81,44.52,56.75,77.85,70.56c33.33,13.81,70.42,15.63,104.94,5.16
	c34.52-10.47,64.35-32.59,84.39-62.59c20.04-30,29.06-66.01,25.53-101.92c-3.54-35.9-19.41-69.47-44.92-94.98L711.02,420.27V264.34z
	"/>
<path class="st0" d="M711.02,264.34c-23.68,0-47.04,5.39-68.33,15.77c-21.28,10.38-39.92,25.46-54.51,44.11
	c-14.58,18.65-24.73,40.38-29.67,63.54c-4.94,23.16-4.54,47.14,1.17,70.11c5.71,22.98,16.58,44.36,31.78,62.51
	c15.2,18.15,34.34,32.61,55.96,42.26c21.62,9.66,45.15,14.27,68.82,13.47c23.67-0.79,46.84-6.97,67.76-18.05l-72.98-137.8V264.34z"
	/>
<path class="st0" d="M220.76,503.86c31.76,0,62.22-12.62,84.68-35.08c22.46-22.46,35.08-52.92,35.08-84.68s-12.62-62.22-35.08-84.68
	c-22.46-22.46-52.92-35.08-84.68-35.08V384.1V503.86z"/>
<path class="st0" d="M101,384.1c0,24.69,7.63,48.78,21.86,68.97c14.22,20.19,34.34,35.48,57.59,43.8
	c23.25,8.31,48.51,9.23,72.3,2.64c23.8-6.6,44.97-20.39,60.63-39.49l-92.62-75.92H101z"/>
<g class="st1">
	<rect x="377.94" y="264.34" class="st2" width="119.76" height="311.87"/>
</g>
<g class="st1">
	<rect x="101" y="264.34" class="st3" width="119.76" height="311.87"/>
</g>
<g class="st1">
	<rect x="931.82" y="391.58" class="st4" width="119.76" height="184.63"/>
</g>
<g class="st1">
	<rect x="894.39" y="264.34" class="st5" width="194.61" height="119.76"/>
</g>
<g class="st1">
	<rect x="505.18" y="456.45" class="st6" width="34.93" height="119.76"/>
</g>
<g class="st1">
	<circle class="st7" cx="711.02" cy="420.27" r="155.93"/>
</g>
<g class="st1">
	<path class="st7" d="M711.02,264.34c-36.08,0-71.04,12.51-98.92,35.4c-27.89,22.89-46.98,54.73-54.02,90.12
		c-7.04,35.38-1.59,72.11,15.42,103.93c17.01,31.81,44.52,56.75,77.85,70.56c33.33,13.81,70.42,15.63,104.94,5.16
		c34.52-10.47,64.35-32.59,84.39-62.59c20.04-30,29.06-66.01,25.53-101.92c-3.54-35.9-19.41-69.47-44.92-94.98L711.02,420.27V264.34
		z"/>
</g>
<g class="st1">
	<path class="st7" d="M711.02,264.34c-23.68,0-47.04,5.39-68.33,15.77c-21.28,10.38-39.92,25.46-54.51,44.11
		c-14.58,18.65-24.73,40.38-29.67,63.54c-4.94,23.16-4.54,47.14,1.17,70.11c5.71,22.98,16.58,44.36,31.78,62.51
		c15.2,18.15,34.34,32.61,55.96,42.26c21.62,9.66,45.15,14.27,68.82,13.47c23.67-0.79,46.84-6.97,67.76-18.05l-72.98-137.8V264.34z"
		/>
</g>
<g class="st1">
	<path class="st8" d="M220.76,503.86c31.76,0,62.22-12.62,84.68-35.08c22.46-22.46,35.08-52.92,35.08-84.68
		s-12.62-62.22-35.08-84.68c-22.46-22.46-52.92-35.08-84.68-35.08V384.1V503.86z"/>
</g>
<g class="st1">
	<path class="st8" d="M101,384.1c0,24.69,7.63,48.78,21.86,68.97c14.22,20.19,34.34,35.48,57.59,43.8
		c23.25,8.31,48.51,9.23,72.3,2.64c23.8-6.6,44.97-20.39,60.63-39.49l-92.62-75.92H101z"/>
</g>
</svg>
